<svg version="1.1" viewBox="0.0 0.0 960.0 240.0" fill="none" stroke="none" stroke-linecap="square" stroke-miterlimit="10" xmlns:xlink="http://www.w3.org/1999/xlink" xmlns="http://www.w3.org/2000/svg"><clipPath id="g8075bf3ac9_0_2.0"><path d="m0 0l960.0 0l0 240.0l-960.0 0l0 -240.0z" clip-rule="nonzero"/></clipPath><g clip-path="url(#g8075bf3ac9_0_2.0)"><path fill="#000000" fill-opacity="0.0" d="m0 0l960.0 0l0 240.0l-960.0 0z" fill-rule="evenodd"/><path fill="#000000" fill-opacity="0.0" d="m0 61.781277l960.0 0l0 116.47244l-960.0 0z" fill-rule="evenodd"/><path fill="#313237" d="m172.4336 71.479996q0 14.734375 -10.40625 25.40625q-10.390625 10.65625 -30.328125 15.328125q10.75 2.953125 16.296875 9.625q5.546875 6.671875 5.546875 15.34375q0 13.6875 -8.59375 23.75q-8.578125 10.046875 -25.046875 15.515625q-16.453125 5.453125 -39.6875 5.453125q-8.65625 0 -13.859375 -0.53125q-0.171875 4.859375 -4.171875 7.28125q-3.984375 2.4375 -10.21875 2.4375q-6.234375 0 -8.578125 -2.78125q-2.34375 -2.765625 -2.0 -8.140625q1.5625 -24.265625 6.0625 -50.875q4.515625 -26.609375 11.453125 -51.390625q1.203125 -4.328125 4.84375 -6.0625q3.640625 -1.734375 9.546875 -1.734375q10.5625 0 10.5625 5.890625q0 2.421875 -1.03125 5.546875q-4.515625 13.515625 -9.03125 36.65625q-4.5 23.140625 -6.40625 44.109375q8.328125 0.703125 13.53125 0.703125q24.265625 0 35.609375 -7.015625q11.359375 -7.03125 11.359375 -17.953125q0 -7.625 -6.5 -12.8125q-6.5 -5.203125 -21.75 -5.734375q-3.46875 -0.171875 -4.859375 -1.734375q-1.390625 -1.5625 -1.390625 -5.015625q0 -5.03125 2.078125 -8.140625q2.09375 -3.125 7.640625 -3.3125q12.296875 -0.34375 22.265625 -3.625q9.96875 -3.296875 15.6875 -9.28125q5.71875 -5.984375 5.71875 -13.953125q0 -10.046875 -9.890625 -15.859379q-9.875 -5.8125 -30.328125 -5.8125q-18.546875 0 -35.875 4.78125q-17.328125 4.765625 -29.46875 12.031254q-5.546875 3.296875 -9.359375 3.296875q-3.109375 0 -4.765625 -2.15625q-1.640625 -2.171875 -1.640625 -5.46875q0 -4.328129 1.8125 -7.453129q1.828125 -3.125 8.765625 -7.109375q14.546875 -8.3125 34.125 -12.984375q19.59375 -4.6875 40.046875 -4.6875q31.375 0 46.796875 10.578125q15.4375 10.5625 15.4375 27.890629zm83.54135 57.71875q2.25 0 3.453125 2.265625q1.21875 2.25 1.21875 5.71875q0 8.3125 -5.015625 9.875q-10.40625 3.640625 -22.890625 4.15625q-3.28125 14.5625 -13.0 23.3125q-9.703125 8.75 -22.0 8.75q-10.40625 0 -17.78125 -5.015625q-7.359375 -5.03125 -11.171875 -13.34375q-3.8125 -8.328125 -3.8125 -18.03125q0 -13.171875 5.015625 -23.484375q5.03125 -10.3125 13.875 -16.109375q8.84375 -5.8125 19.59375 -5.8125q13.171875 0 21.21875 9.09375q8.0625 9.09375 9.453125 22.4375q8.15625 -0.515625 19.421875 -3.453125q1.375 -0.359375 2.421875 -0.359375zm-56.859375 35.71875q5.546875 0 9.625 -4.5q4.078125 -4.515625 5.453125 -13.015625q-5.359375 -3.640625 -8.21875 -9.53125q-2.859375 -5.890625 -2.859375 -12.484375q0 -2.765625 0.515625 -5.546875l-0.875 0q-6.921875 0 -11.515625 6.6875q-4.59375 6.671875 -4.59375 18.796875q0 9.53125 3.71875 14.5625q3.734375 5.03125 8.75 5.03125zm58.936615 18.359375q-6.5781097 0 -9.26561 -6.921875q-2.6875 -6.9375 -2.6875 -22.1875q0 -22.53125 6.40625 -42.8125q1.5625 -5.03125 5.1093597 -7.359375q3.5625 -2.34375 9.96875 -2.34375q3.46875 0 4.859375 0.875q1.390625 0.859375 1.390625 3.28125q0 2.765625 -2.609375 12.484375q-1.734375 6.921875 -2.78125 12.125q-1.03125 5.203125 -1.71875 12.828125q5.71875 -14.90625 12.8125 -24.265625q7.109375 -9.359375 13.953125 -13.34375q6.859375 -3.984375 12.578125 -3.984375q11.265625 0 11.265625 11.265625q0 2.25 -1.5625 10.921875q-1.390625 6.921875 -1.390625 8.65625q0 6.0625 4.34375 6.0625q4.84375 0 12.46875 -7.625q2.265625 -2.25 4.6875 -2.25q2.25 0 3.546875 2.0q1.296875 1.984375 1.296875 5.28125q0 6.421875 -3.453125 10.046875q-4.859375 5.03125 -11.359375 8.59375q-6.5 3.546875 -13.78125 3.546875q-9.1875 0 -13.953125 -4.671875q-4.765625 -4.6875 -4.765625 -12.65625q0 -2.609375 0.515625 -5.203125q0.359375 -3.46875 0.359375 -4.6875q0 -2.765625 -1.921875 -2.765625q-2.59375 0 -6.84375 5.8125q-4.234375 5.796875 -8.40625 15.328125q-4.15625 9.53125 -6.75 20.109375q-1.90625 8.140625 -4.421875 11.0q-2.515625 2.859375 -7.890625 2.859375zm86.48932 0q-9.875 0 -16.03125 -7.796875q-6.15625 -7.796875 -6.15625 -20.453125q0 -13.859375 6.40625 -26.25q6.421875 -12.390625 17.078125 -19.9375q10.671875 -7.546875 22.625 -7.546875q3.8125 0 5.109375 1.484375q1.296875 1.46875 2.171875 5.28125q3.296875 -0.6875 7.28125 -0.6875q4.15625 0 6.40625 2.078125q2.25 2.078125 2.25 5.890625q0 3.984375 -1.71875 13.859375q-1.90625 10.578125 -2.953125 20.203125q-1.046875 9.609375 -1.046875 21.578125q0 6.578125 -2.6875 9.4375q-2.671875 2.859375 -8.75 2.859375q-5.890625 0 -8.75 -2.859375q-2.859375 -2.859375 -2.859375 -9.265625l0.171875 -2.78125q-5.375 14.90625 -18.546875 14.90625zm6.765625 -17.5q4.84375 0 8.828125 -6.75q4.0 -6.765625 7.109375 -24.09375l3.296875 -17.515625q-7.109375 0.171875 -13.171875 5.46875q-6.0625 5.28125 -9.703125 13.953125q-3.640625 8.65625 -3.640625 18.359375q0 5.203125 1.984375 7.890625q2.0 2.6875 5.296875 2.6875zm146.97247 18.03125q-23.046875 0 -36.921875 -8.75q-13.859375 -8.765625 -13.859375 -26.78125q0 -9.53125 3.296875 -14.5625q3.296875 -5.03125 9.703125 -5.03125q4.6875 0 7.625 2.4375q2.953125 2.421875 2.953125 6.234375q0 3.46875 -0.515625 6.0625q0 0.6875 -0.265625 2.421875q-0.265625 1.734375 -0.265625 3.640625q0 7.8125 7.890625 11.625q7.890625 3.8125 22.09375 3.8125q14.734375 0 23.046875 -5.28125q8.328125 -5.296875 8.328125 -14.828125q0 -5.890625 -3.8125 -10.140625q-3.8125 -4.25 -9.53125 -7.109375q-5.71875 -2.859375 -16.125 -7.015625q-13.34375 -5.203125 -21.75 -9.875q-8.40625 -4.6875 -14.390625 -12.75q-5.96875 -8.0625 -5.96875 -20.015625q0 -12.484375 6.671875 -22.187504q6.671875 -9.703125 19.234375 -15.078125q12.5625 -5.375 29.5625 -5.375q12.640625 0 23.21875 3.734375q10.578125 3.71875 16.890625 11.34375q6.328125 7.625 6.328125 18.718754q0 10.921875 -3.296875 16.46875q-3.28125 5.546875 -9.703125 5.546875q-4.5 0 -7.53125 -2.765625q-3.03125 -2.78125 -3.03125 -6.59375q0 -3.296875 0.515625 -6.0625q0.515625 -5.203125 0.515625 -6.59375q0 -7.281254 -7.109375 -11.093754q-7.09375 -3.8125 -17.671875 -3.8125q-14.90625 0 -22.796875 5.46875q-7.875 5.453129 -7.875 15.328129q0 6.59375 4.0625 11.28125q4.078125 4.671875 10.140625 7.796875q6.0625 3.109375 16.984375 7.453125q13.171875 5.359375 21.140625 9.703125q7.984375 4.328125 13.609375 11.78125q5.640625 7.453125 5.640625 18.375q0 20.453125 -15.515625 31.46875q-15.515625 11.0 -41.515625 11.0zm149.06952 -40.046875q2.25 0 3.546875 2.078125q1.3125 2.078125 1.3125 5.71875q0 6.9375 -3.296875 10.75q-6.421875 7.796875 -18.125 14.390625q-11.6875 6.578125 -25.03125 6.578125q-18.203125 0 -28.265625 -9.875q-10.046875 -9.875 -10.046875 -27.03125q0 -11.96875 5.015625 -22.28125q5.03125 -10.3125 13.953125 -16.375q8.9375 -6.0625 20.203125 -6.0625q10.046875 0 16.109375 5.984375q6.078125 5.96875 6.078125 16.203125q0 11.953125 -8.578125 20.53125q-8.578125 8.578125 -29.03125 13.609375q4.328125 7.96875 16.46875 7.96875q7.796875 0 17.765625 -5.453125q9.96875 -5.46875 17.234375 -14.296875q2.09375 -2.4375 4.6875 -2.4375zm-43.671875 -25.125q-6.421875 0 -10.84375 7.453125q-4.421875 7.453125 -4.421875 18.015625l0 0.359375q10.234375 -2.4375 16.125 -7.28125q5.890625 -4.859375 5.890625 -11.265625q0 -3.296875 -1.828125 -5.28125q-1.8125 -2.0 -4.921875 -2.0zm54.93878 64.640625q-10.75 0 -17.171875 -7.796875q-6.40625 -7.796875 -6.40625 -20.453125q0 -13.859375 6.40625 -26.25q6.421875 -12.390625 17.078125 -19.9375q10.671875 -7.546875 22.625 -7.546875q3.8125 0 5.109375 1.484375q1.296875 1.46875 2.171875 5.28125q3.640625 -0.6875 7.625 -0.6875q8.5 0 8.5 6.0625q0 3.640625 -2.609375 17.328125q-3.984375 19.9375 -3.984375 27.734375q0 2.609375 1.296875 4.171875q1.296875 1.546875 3.390625 1.546875q3.28125 0 7.953125 -4.234375q4.6875 -4.25 12.671875 -13.78125q2.078125 -2.4375 4.671875 -2.4375q2.25 0 3.546875 2.078125q1.3125 2.078125 1.3125 5.71875q0 6.9375 -3.296875 10.75q-7.109375 8.84375 -15.078125 14.90625q-7.96875 6.0625 -15.421875 6.0625q-5.71875 0 -10.5 -3.890625q-4.765625 -3.90625 -7.1875 -10.65625q-9.015625 14.546875 -22.703125 14.546875zm6.234375 -17.5q3.8125 0 7.28125 -4.5q3.46875 -4.515625 5.03125 -11.96875l6.40625 -31.890625q-7.28125 0.171875 -13.4375 5.46875q-6.140625 5.28125 -9.78125 13.953125q-3.640625 8.65625 -3.640625 18.359375q0 5.375 2.15625 7.984375q2.171875 2.59375 5.984375 2.59375zm66.21423 17.5q-6.578125 0 -9.265625 -6.921875q-2.6875 -6.9375 -2.6875 -22.1875q0 -22.53125 6.40625 -42.8125q1.5625 -5.03125 5.109375 -7.359375q3.5625 -2.34375 9.96875 -2.34375q3.46875 0 4.859375 0.875q1.390625 0.859375 1.390625 3.28125q0 2.765625 -2.609375 12.484375q-1.734375 6.921875 -2.78125 12.125q-1.03125 5.203125 -1.71875 12.828125q5.71875 -14.90625 12.8125 -24.265625q7.109375 -9.359375 13.953125 -13.34375q6.859375 -3.984375 12.578125 -3.984375q11.265625 0 11.265625 11.265625q0 2.25 -1.5625 10.921875q-1.390625 6.921875 -1.390625 8.65625q0 6.0625 4.34375 6.0625q4.84375 0 12.46875 -7.625q2.265625 -2.25 4.6875 -2.25q2.25 0 3.546875 2.0q1.296875 1.984375 1.296875 5.28125q0 6.421875 -3.453125 10.046875q-4.859375 5.03125 -11.359375 8.59375q-6.5 3.546875 -13.78125 3.546875q-9.1875 0 -13.953125 -4.671875q-4.765625 -4.6875 -4.765625 -12.65625q0 -2.609375 0.515625 -5.203125q0.359375 -3.46875 0.359375 -4.6875q0 -2.765625 -1.921875 -2.765625q-2.59375 0 -6.84375 5.8125q-4.234375 5.796875 -8.40625 15.328125q-4.15625 9.53125 -6.75 20.109375q-1.90625 8.140625 -4.421875 11.0q-2.515625 2.859375 -7.890625 2.859375zm99.661194 0q-16.984375 0 -26.4375 -9.609375q-9.4375 -9.625 -9.4375 -25.390625q0 -14.046875 5.546875 -24.609375q5.546875 -10.578125 14.375 -16.296875q8.84375 -5.71875 18.5625 -5.71875q9.53125 0 14.8125 5.640625q5.28125 5.625 5.28125 14.453125q0 7.28125 -3.203125 12.3125q-3.203125 5.03125 -8.40625 5.03125q-3.296875 0 -5.296875 -1.5625q-1.984375 -1.5625 -1.984375 -4.328125q0 -1.21875 0.34375 -2.78125q0.359375 -1.5625 0.53125 -2.25q0.859375 -2.609375 0.859375 -4.859375q0 -2.25 -1.125 -3.453125q-1.125 -1.21875 -3.203125 -1.21875q-3.984375 0 -7.453125 3.5625q-3.46875 3.546875 -5.546875 9.609375q-2.078125 6.0625 -2.078125 13.34375q0 20.109375 17.5 20.109375q7.109375 0 15.34375 -4.765625q8.234375 -4.765625 16.203125 -14.296875q2.078125 -2.4375 4.6875 -2.4375q2.25 0 3.546875 2.078125q1.296875 2.078125 1.296875 5.71875q0 6.59375 -3.296875 10.75q-8.140625 10.0625 -19.5 15.515625q-11.34375 5.453125 -21.921875 5.453125zm92.03479 -81.625q5.546875 0 8.40625 2.859375q2.859375 2.859375 2.859375 8.40625q0 4.5 -1.90625 16.984375q-1.734375 10.5625 -2.78125 20.015625q-1.03125 9.453125 -1.03125 21.0625q0 6.578125 -2.6875 9.4375q-2.6875 2.859375 -8.75 2.859375q-5.71875 0 -8.328125 -2.9375q-2.59375 -2.953125 -2.59375 -8.84375q0 -6.9375 2.4375 -22.875q2.078125 -13.875 2.078125 -17.6875q0 -2.765625 -1.90625 -2.765625q-2.25 0 -6.421875 5.8125q-4.15625 5.796875 -8.3125 15.328125q-4.15625 9.53125 -6.765625 20.109375q-1.90625 8.140625 -4.421875 11.0q-2.5 2.859375 -7.875 2.859375q-5.375 0 -7.890625 -3.890625q-2.515625 -3.90625 -3.390625 -12.046875q-0.859375 -8.140625 -0.859375 -23.921875q0 -26.6875 5.453125 -55.625q5.46875 -28.953129 16.125 -48.625004q10.65625 -19.671873 25.5625 -19.671873q7.984375 0 12.921875 6.84375q4.9375 6.843748 4.9375 17.765623q0 17.5 -10.234375 36.312504q-10.21875 18.796875 -33.265625 43.9375q-0.53125 9.015625 -0.53125 18.546875q5.71875 -14.734375 12.734375 -24.0q7.03125 -9.28125 13.875 -13.265625q6.84375 -3.984375 12.5625 -3.984375zm-16.640625 -65.0q-3.109375 0 -6.921875 8.921875q-3.8125 8.921875 -7.375 24.093754q-3.546875 15.171875 -5.796875 33.015625q10.734375 -12.65625 17.75 -27.5625q7.03125 -14.906254 7.03125 -27.031254q0 -5.546875 -1.21875 -8.484375q-1.203125 -2.953125 -3.46875 -2.953125z" fill-rule="nonzero"/></g></svg>